<?xml version="1.0"?><svg xmlns="http://www.w3.org/2000/svg" viewBox="0 0 2000 2000" width="512" height="512"><rect height="2e3" width="2e3" fill="#f00"/><rect transform="rotate(45.74)" height="620" width="3e3"  y="-301.7" x="-78.89" fill="#fff"/><path d="m913.2 1935v-105.1h27.25l50.24 64.26v-64.26h27.25v105.1h-27.25l-50.24-64.26v64.26h-27.25zm-139.2-105l18.27 67.88 22.21-67.88h21.74l20.63 67.88 19.84-67.88h28.51l-33.55 105.1h-27.88l-19.06-60.8-20.16 60.8h-27.72l-31.34-105.1h28.51zm-148.1 53q0-23.94 16.54-40 16.7-16.06 41.58-16.06t41.42 16.06q16.7 16.06 16.7 40t-16.7 39.85q-16.54 15.91-41.42 15.91t-41.58-15.91q-16.5-16-16.5-40zm28.51 0q0 12.13 8.662 20.79 8.82 8.662 20.95 8.662 12.28 0 20.95-8.662 8.662-8.662 8.662-20.79 0-12.28-8.662-20.95-8.662-8.662-20.95-8.662-12.28 0-20.95 8.662-8.662 8.662-8.662 20.95zm-130.3 52v-105.1h40.32q20.95 0 36.38 15.75 15.44 15.59 15.44 36.86 0 21.1-15.44 36.86-15.44 15.59-36.38 15.59h-40.32zm27.25-23.15h6.3q13.39 0 21.58-7.875 8.348-7.875 8.348-21.42 0-5.985-2.048-11.34-1.89-5.355-5.512-9.292-5.67-6.458-13.23-7.56-7.402-1.26-15.44-1.26v58.75zm-109.4-20l32.92 43h-33.86l-26.14-40.32v40.32h-27.25v-105.1h42.52q15.44 0 25.04 8.662 9.608 8.505 9.608 24.57 0 11.02-6.142 18.74-5.985 7.56-16.7 10.08zm-27.09-14.96q1.418 0 2.835 0 1.418 0 2.835-0.1575 6.142-0.4725 11.18-2.835 5.04-2.52 5.04-10.08 0-7.088-4.882-9.608-4.725-2.52-10.55-3.15-1.732 0-3.308 0-1.575-0.1575-3.15-0.1575v25.99zm-41.4-24h-32.44v17.48h30.71v23.15h-30.71v18.11h32.44v23.15h-59.69v-105.1h59.69v23.15zm-148.1-23 25.2 63.94 25.52-63.94h29.61l-44.73 105.1h-21.26l-44.1-105.1h29.77zm-37.7 0v105.1h-27.25v-105.1h27.25zm-133.8 105v-105.1h40.32q20.95 0 36.38 15.75 15.44 15.59 15.44 36.86 0 21.1-15.44 36.86-15.44 15.59-36.38 15.59h-40.32zm27.25-23.15h6.3q13.39 0 21.58-7.875 8.348-7.875 8.348-21.42 0-5.985-2.048-11.34-1.89-5.355-5.512-9.292-5.67-6.458-13.23-7.56-7.402-1.26-15.44-1.26v58.75zm1234-1749v-105.1h27.25l50.24 64.26v-64.26h27.25v105.1h-27.25l-50.24-64.26v64.26h-27.25zm-45-18.3h-37.64l-7.245 18.27h-28.82l40.32-105.1h29.77l39.53 105.1h-29.14l-6.772-18.27zm-7.402-20.79-11.18-33.39-11.5 33.39h22.68zm-134-65.94l25.2 63.95 25.52-63.95h29.61l-44.73 105.1h-21.26l-44.1-105.1h29.77zm722 105v-105.1h27.25l50.24 64.26v-64.26h27.25v105.1h-27.25l-50.24-64.26v64.26h-27.25zm-14-81.89h-32.44v17.48h30.71v23.15h-30.71v18.11h32.44v23.15h-59.69v-105.1h59.69v23.15zm-104-23.15v81.9h32.76v23.15h-60.01v-105.1h27.25zm-72 86.74h-37.64l-7.245 18.27h-28.82l40.32-105.1h29.77l39.53 105.1h-29.14l-6.772-18.27zm-7.402-20.79-11.18-33.39-11.5 33.39h22.68zm-142-25.31h39.38v-40.64h27.4v105.1h-27.4v-43.31h-39.38v43.31h-27.25v-105.1h27.25v40.64z"/></svg>